<svg width="54" height="54" viewBox="0 0 54 54" fill="none" xmlns="http://www.w3.org/2000/svg">
<g clip-path="url(#clip0)">
<path d="M52.0984 31.2592C53.7094 17.6984 51.3244 9.13718 47.0224 5.26493L47.0247 5.26268C40.0812 -1.35007 16.6317 -2.32882 8.32469 5.55968C4.59419 9.41843 3.28019 15.0817 3.13619 22.0927C2.99219 29.1059 2.82119 42.2437 15.0634 45.8077H15.0747L15.0634 51.2504C15.0634 51.2504 14.9802 53.4554 16.3887 53.8987C17.9997 54.4207 18.7287 53.3969 23.7394 47.4119C32.1184 48.1387 38.5534 46.4737 39.2847 46.2307C40.9767 45.6637 50.5504 44.3969 52.0984 31.2592ZM24.5652 43.5824C24.5652 43.5824 19.2619 50.1952 17.6127 51.9119C17.0727 52.4699 16.4809 52.4182 16.4899 51.3112C16.4899 50.5844 16.5304 42.2752 16.5304 42.2752C6.15119 39.3007 6.76319 28.1137 6.87569 22.2614C6.98819 16.4069 8.05919 11.6122 11.2182 8.38343C18.5059 1.55018 39.0642 3.07793 44.3022 8.00093C50.7057 13.6777 48.4264 29.7157 48.4399 30.2624C47.1237 41.2289 39.3657 41.9242 37.9392 42.3989C37.3294 42.6014 31.6707 44.0572 24.5652 43.5824Z" fill="#8E24AA"/>
<path d="M27.4993 9.66809C26.633 9.66809 26.633 11.0181 27.4993 11.0293C34.22 11.0811 39.755 15.7656 39.8158 24.3583C39.8158 25.2651 41.1433 25.2538 41.132 24.3471H41.1298C41.0578 15.0883 35.0143 9.71984 27.4993 9.66809Z" fill="#8E24AA"/>
<path d="M36.3396 22.934C36.3194 23.8295 37.6446 23.8722 37.6559 22.9655C37.7661 17.8602 34.6184 13.655 28.7031 13.2117C27.8369 13.1487 27.7469 14.51 28.6109 14.573C33.7409 14.9622 36.4431 18.4632 36.3396 22.934Z" fill="#8E24AA"/>
<path d="M34.9217 28.7415C33.8102 28.098 32.6785 28.4985 32.2105 29.1307L31.2317 30.3975C30.7345 31.041 29.8052 30.9555 29.8052 30.9555C23.0237 29.1622 21.2103 22.0657 21.2103 22.0657C21.2103 22.0657 21.127 21.105 21.748 20.5897L22.972 19.5772C23.584 19.0912 23.971 17.9212 23.3477 16.7715C21.6827 13.7632 20.5645 12.726 19.9953 11.9295C19.3968 11.1802 18.4968 11.0115 17.5608 11.5177H17.5405C15.5943 12.6562 13.4635 14.787 14.1453 16.9807C15.3085 19.2937 17.446 26.667 24.259 32.238C27.4607 34.8727 32.5277 37.5727 34.6787 38.196L34.699 38.2275C36.8185 38.934 38.8795 36.72 39.9797 34.7152V34.6995C40.468 33.7297 40.306 32.8117 39.5927 32.211C38.3282 30.978 36.4202 29.6167 34.9217 28.7415Z" fill="#8E24AA"/>
<path d="M29.63 18.2342C31.7923 18.3602 32.8408 19.4897 32.9533 21.8094C32.9938 22.7162 34.3101 22.6532 34.2696 21.7464C34.1256 18.7179 32.5461 17.0304 29.702 16.8729C28.8358 16.8211 28.7548 18.1824 29.63 18.2342Z" fill="#8E24AA"/>
</g>
<defs>
<clipPath id="clip0">
<rect width="54" height="54" fill="white"/>
</clipPath>
</defs>
</svg>
