<svg width="54" height="54" viewBox="0 0 54 54" fill="none" xmlns="http://www.w3.org/2000/svg">
<path d="M27.0068 0H26.9932C12.1061 0 0 12.1095 0 27C0 32.9062 1.9035 38.3805 5.14012 42.8254L1.77525 52.8559L12.1534 49.5382C16.4228 52.3665 21.5156 54 27.0068 54C41.8939 54 54 41.8871 54 27C54 12.1129 41.8939 0 27.0068 0Z" fill="#4CAF50"/>
<path d="M42.7171 38.1275C42.0657 39.9669 39.4805 41.4924 37.4184 41.9379C36.0076 42.2382 34.1649 42.4779 27.9616 39.9061C20.027 36.6189 14.9172 28.556 14.519 28.0329C14.1376 27.5097 11.3127 23.7635 11.3127 19.889C11.3127 16.0145 13.2804 14.1279 14.0735 13.3179C14.7249 12.653 15.8015 12.3492 16.8342 12.3492C17.1684 12.3492 17.4687 12.3661 17.7387 12.3796C18.5319 12.4134 18.9301 12.4606 19.4532 13.7127C20.1046 15.2821 21.6909 19.1566 21.8799 19.5549C22.0722 19.9531 22.2646 20.4931 21.9946 21.0162C21.7415 21.5562 21.5187 21.7959 21.1205 22.2549C20.7222 22.7139 20.3442 23.0649 19.946 23.5576C19.5815 23.9862 19.1697 24.4452 19.6287 25.2384C20.0877 26.0146 21.674 28.6032 24.0095 30.6822C27.0234 33.3654 29.4669 34.2226 30.341 34.5871C30.9924 34.8571 31.7686 34.793 32.2445 34.2867C32.8486 33.6354 33.5945 32.5554 34.3539 31.4922C34.8939 30.7295 35.5756 30.635 36.2911 30.905C37.0201 31.1581 40.8777 33.065 41.6709 33.4599C42.464 33.8581 42.9871 34.0471 43.1795 34.3812C43.3685 34.7154 43.3685 36.2847 42.7171 38.1275Z" fill="#FAFAFA"/>
</svg>
